<?xml version="1.0" standalone="yes"?>

<svg version="1.1" viewBox="0.0 0.0 960.0 540.0" fill="none" stroke="none" stroke-linecap="square" stroke-miterlimit="10" xmlns="http://www.w3.org/2000/svg" xmlns:xlink="http://www.w3.org/1999/xlink"><clipPath id="g2700e4cf8_6200.0"><path d="m0 0l960.0 0l0 540.0l-960.0 0l0 -540.0z" clip-rule="nonzero"></path></clipPath><g clip-path="url(#g2700e4cf8_6200.0)"><defs><radialGradient id="g2700e4cf8_6200.1" gradientUnits="userSpaceOnUse" gradientTransform="matrix(23.467568856993744 0.0 0.0 23.467568856993744 0.0 0.0)" spreadMethod="pad" cx="20.453759097289346" cy="11.505239492225257" fx="20.453759097289346" fy="11.505239492225257" r="23.46756935119629"><stop offset="0.0" stop-color="#c6dfff"></stop><stop offset="1.0" stop-color="#4f81bd"></stop></radialGradient></defs><path fill="url(#g2700e4cf8_6200.1)" d="m0 0l960.0 0l0 540.0l-960.0 0z" fill-rule="nonzero"></path><defs><linearGradient id="g2700e4cf8_6200.2" gradientUnits="userSpaceOnUse" gradientTransform="matrix(36.82097916001637 0.0 0.0 20.844684073637893 0.0 0.0)" spreadMethod="pad" x1="11.67341091337281" y1="-12.964634764610455" x2="-12.964634764610455" y2="14.398683957210748"><stop offset="0.0" stop-color="#003171"></stop><stop offset="1.0" stop-color="#549fff"></stop></linearGradient></defs><path fill="url(#g2700e4cf8_6200.2)" d="m0 0l960.00006 0l0 543.46454l-960.00006 0z" fill-rule="nonzero"></path><defs><radialGradient id="g2700e4cf8_6200.3" gradientUnits="userSpaceOnUse" gradientTransform="matrix(35.62002256060273 0.0 0.0 35.62002256060273 0.0 0.0)" spreadMethod="pad" cx="32.19163454309337" cy="15.259062233691967" fx="32.19163454309337" fy="15.259062233691967" r="35.62002182006836"><stop offset="0.0" stop-color="#549fff" stop-opacity="0.40784314"></stop><stop offset="0.41" stop-color="#003171" stop-opacity="0.9490196"></stop><stop offset="1.0" stop-color="#003171" stop-opacity="0.9490196"></stop></radialGradient></defs><path fill="url(#g2700e4cf8_6200.3)" d="m707.6936 1.2640158l-708.096 0.4641403l1.3799527 541.8l732.7538 -0.46411133c412.93536 -299.86963 61.01245 -517.1276 -26.03778 -541.8z" fill-rule="nonzero"></path><defs><radialGradient id="g2700e4cf8_6200.4" gradientUnits="userSpaceOnUse" gradientTransform="matrix(35.05146431917838 0.0 0.0 35.05146431917838 0.0 0.0)" spreadMethod="pad" cx="31.496544336835232" cy="15.472491831450624" fx="31.496544336835232" fy="15.472491831450624" r="35.05146408081055"><stop offset="0.0" stop-color="#549fff" stop-opacity="0.5372549"></stop><stop offset="0.41" stop-color="#003171" stop-opacity="0.5372549"></stop><stop offset="1.0" stop-color="#003171" stop-opacity="0.5372549"></stop></radialGradient></defs><path fill="url(#g2700e4cf8_6200.4)" d="m682.09796 0.069370076l-680.5589 0.46414042l1.326288 541.8l704.2578 -0.46411133c396.87683 -299.86966 58.63977 -517.1276 -25.025208 -541.8z" fill-rule="nonzero"></path><defs><linearGradient id="g2700e4cf8_6200.5" gradientUnits="userSpaceOnUse" gradientTransform="matrix(15.08494565667763 0.0 0.0 12.633642584547921 -88.88892306430446 -0.06944881649467889)" spreadMethod="pad" x1="0.0" y1="43.01566105367268" x2="15.08494565667763" y2="43.01566105367268"><stop offset="0.0" stop-color="#003171" stop-opacity="0.20784314"></stop><stop offset="1.0" stop-color="#65a8ff" stop-opacity="0.20784314"></stop></linearGradient></defs><path fill="url(#g2700e4cf8_6200.5)" d="m9.777741 -0.069448814l101.33333 0.5170958c27.555588 90.574066 -200.0 162.01999 -0.88892365 542.9274l-100.444405 0l0 -543.4445z" fill-rule="nonzero"></path><defs><linearGradient id="g2700e4cf8_6200.6" gradientUnits="userSpaceOnUse" gradientTransform="matrix(10.673113459114175 0.0 0.0 -13.804992279381894 -55.11117946194226 543.4583333333334)" spreadMethod="pad" x1="0.0" y1="39.36579436569528" x2="13.804992279381894" y2="39.36579436569528"><stop offset="0.0" stop-color="#003171" stop-opacity="0.20784314"></stop><stop offset="1.0" stop-color="#65a8ff" stop-opacity="0.20784314"></stop></linearGradient></defs><path fill="url(#g2700e4cf8_6200.6)" d="m8.775489 543.4583l65.613335 -0.51708984c17.842247 -90.574066 -129.5 -162.01996 -0.5755768 -542.92737l-65.03776 0l0 543.44446z" fill-rule="nonzero"></path><path fill="#000000" fill-opacity="0.0" d="m-4.8897066 156.06036l780.5354 0l0 115.74805l-780.5354 0z" fill-rule="nonzero"></path><path fill="#f3f3f3" d="m189.67694 247.2484l-12.21875 -18.90625q-1.84375 -0.03125 -5.15625 -0.21875l0 19.125l-8.4375 0l0 -45.78125q0.6875 0 5.28125 -0.234375q4.59375 -0.234375 7.40625 -0.234375q17.4375 0 17.4375 13.5q0 4.0625 -2.40625 7.40625q-2.40625 3.34375 -6.0625 4.71875l13.53125 20.625l-9.375 0zm-17.375 -38.71875l0 12.71875q2.25 0.1875 3.4375 0.1875q5.09375 0 7.453125 -1.4375q2.359375 -1.4375 2.359375 -5.59375q0 -3.375 -2.53125 -4.71875q-2.53125 -1.34375 -7.96875 -1.34375q-1.3125 0 -2.75 0.1875zm60.0625 24.375l-23.90625 0q0.21875 4.0 2.75 6.21875q2.53125 2.21875 6.8125 2.21875q5.34375 0 8.125 -2.78125l3.03125 5.96875q-4.125 3.34375 -12.3125 3.34375q-7.65625 0 -12.109375 -4.484375q-4.453125 -4.484375 -4.453125 -12.515625q0 -7.90625 4.890625 -12.8125q4.890625 -4.90625 11.734375 -4.90625q7.28125 0 11.6875 4.34375q4.40625 4.34375 4.40625 11.0625q0 1.4375 -0.65625 4.34375zm-23.625 -5.875l16.4375 0q-0.8125 -7.34375 -8.125 -7.34375q-6.6875 0 -8.3125 7.34375zm49.15625 16.875q-1.0625 1.75 -3.703125 2.859375q-2.640625 1.109375 -5.515625 1.109375q-5.40625 0 -8.5 -2.703125q-3.09375 -2.703125 -3.09375 -7.671875q0 -5.8125 4.359375 -9.09375q4.359375 -3.28125 12.390625 -3.28125q1.375 0 3.25 0.46875q0 -5.90625 -7.46875 -5.90625q-4.40625 0 -7.375 1.46875l-1.6875 -6.0625q4.03125 -1.9375 9.59375 -1.9375q7.65625 0 11.21875 3.484375q3.5625 3.484375 3.5625 13.203125l0 7.15625q0 6.6875 2.6875 8.40625q-0.96875 1.6875 -2.15625 2.078125q-1.1875 0.390625 -2.71875 0.390625q-1.6875 0 -3.03125 -1.25q-1.34375 -1.25 -1.8125 -2.71875zm-0.75 -12.40625q-2.0 -0.40625 -3.0 -0.40625q-9.25 0 -9.25 6.0625q0 4.5 5.21875 4.5q7.03125 0 7.03125 -7.03125l0 -3.125zm37.75 15.75l0 -2.03125q-0.96875 1.0625 -3.28125 1.859375q-2.3125 0.796875 -4.78125 0.796875q-7.0 0 -11.015625 -4.4375q-4.015625 -4.4375 -4.015625 -12.375q0 -7.9375 4.609375 -12.921875q4.609375 -4.984375 11.546875 -4.984375q3.8125 0 6.9375 1.5625l0 -13.40625l7.8125 -1.875l0 47.8125l-7.8125 0zm0 -25.46875q-2.5 -2.0 -5.21875 -2.0q-4.6875 0 -7.21875 2.859375q-2.53125 2.859375 -2.53125 8.203125q0 10.4375 10.0625 10.4375q1.125 0 2.765625 -0.671875q1.640625 -0.671875 2.140625 -1.359375l0 -17.46875zm21.75 -20.96875q1.875 0 3.203125 1.328125q1.328125 1.328125 1.328125 3.203125q0 1.875 -1.328125 3.203125q-1.328125 1.328125 -3.203125 1.328125q-1.875 0 -3.203125 -1.328125q-1.328125 -1.328125 -1.328125 -3.203125q0 -1.875 1.328125 -3.203125q1.328125 -1.328125 3.203125 -1.328125zm-4.03125 46.4375l0 -27.0625l-4.28125 0l0 -6.40625l12.1875 0l0 33.46875l-7.90625 0zm38.53125 0l0 -19.34375q0 -4.28125 -1.640625 -6.25q-1.640625 -1.96875 -5.359375 -1.96875q-1.71875 0 -3.671875 0.96875q-1.953125 0.96875 -3.046875 2.40625l0 24.1875l-7.8125 0l0 -33.46875l5.625 0l1.4375 3.125q3.1875 -3.75 9.40625 -3.75q5.96875 0 9.421875 3.578125q3.453125 3.578125 3.453125 9.984375l0 20.53125l-7.8125 0zm13.75 8.59375l4.9375 -6.09375q4.09375 3.75 9.125 3.75q3.375 0 5.5625 -1.0q2.1875 -1.0 2.1875 -2.75q0 -2.96875 -4.84375 -2.96875q-1.3125 0 -3.90625 0.3125q-2.59375 0.3125 -3.90625 0.3125q-8.0625 0 -8.0625 -5.78125q0 -1.65625 1.34375 -3.25q1.34375 -1.59375 3.125 -2.34375q-5.71875 -3.71875 -5.71875 -10.53125q0 -5.375 3.9375 -8.890625q3.9375 -3.515625 9.6875 -3.515625q4.5 0 7.53125 1.6875l3.0625 -3.5625l5.40625 4.90625l-3.71875 2.71875q1.9375 2.9375 1.9375 6.9375q0 5.71875 -3.484375 9.140625q-3.484375 3.421875 -8.796875 3.421875q-0.84375 0 -2.25 -0.15625l-1.28125 -0.1875q-0.21875 0 -1.671875 0.671875q-1.453125 0.671875 -1.453125 1.390625q0 1.25 2.15625 1.25q0.96875 0 3.25 -0.46875q2.28125 -0.46875 3.90625 -0.46875q11.40625 0 11.40625 9.15625q0 5.0625 -4.5625 7.9531403q-4.5625 2.890625 -11.0 2.890625q-7.6875 0 -13.90625 -4.5312653zm7.8125 -30.3125q0 2.96875 1.640625 4.765625q1.640625 1.796875 4.421875 1.796875q2.78125 0 4.28125 -1.75q1.5 -1.75 1.5 -4.8125q0 -2.53125 -1.609375 -4.28125q-1.609375 -1.75 -4.171875 -1.75q-2.6875 0 -4.375 1.6875q-1.6875 1.6875 -1.6875 4.34375zm65.4375 -4.46875q-2.09375 -1.375 -4.59375 -1.375q-2.71875 0 -4.828125 2.46875q-2.109375 2.46875 -2.109375 6.03125l0 19.0625l-7.8125 0l0 -33.46875l7.8125 0l0 3.0625q3.28125 -3.6875 8.71875 -3.6875q4.0 0 6.125 1.21875l-3.3125 6.6875zm37.875 11.84375l-23.90625 0q0.21875 4.0 2.75 6.21875q2.53125 2.21875 6.8125 2.21875q5.34375 0 8.125 -2.78125l3.03125 5.96875q-4.125 3.34375 -12.3125 3.34375q-7.65625 0 -12.109375 -4.484375q-4.453125 -4.484375 -4.453125 -12.515625q0 -7.90625 4.890625 -12.8125q4.890625 -4.90625 11.734375 -4.90625q7.28125 0 11.6875 4.34375q4.40625 4.34375 4.40625 11.0625q0 1.4375 -0.65625 4.34375zm-23.625 -5.875l16.4375 0q-0.8125 -7.34375 -8.125 -7.34375q-6.6875 0 -8.3125 7.34375zm29.71875 5.34375l0 -7.34375l16.53125 0l0 7.34375l-16.53125 0zm45.84375 14.875l0 -2.03125q-0.96875 1.0625 -3.28125 1.859375q-2.3125 0.796875 -4.78125 0.796875q-7.0 0 -11.015625 -4.4375q-4.015625 -4.4375 -4.015625 -12.375q0 -7.9375 4.609375 -12.921875q4.609375 -4.984375 11.546875 -4.984375q3.8125 0 6.9375 1.5625l0 -13.40625l7.8125 -1.875l0 47.8125l-7.8125 0zm0 -25.46875q-2.5 -2.0 -5.21875 -2.0q-4.6875 0 -7.21875 2.859375q-2.53125 2.859375 -2.53125 8.203125q0 10.4375 10.0625 10.4375q1.125 0 2.765625 -0.671875q1.640625 -0.671875 2.140625 -1.359375l0 -17.46875zm45.5 11.125l-23.90625 0q0.21875 4.0 2.75 6.21875q2.53125 2.21875 6.8125 2.21875q5.34375 0 8.125 -2.78125l3.03125 5.96875q-4.125 3.34375 -12.3125 3.34375q-7.65625 0 -12.109375 -4.484375q-4.453125 -4.484375 -4.453125 -12.515625q0 -7.90625 4.890625 -12.8125q4.890625 -4.90625 11.734375 -4.90625q7.28125 0 11.6875 4.34375q4.40625 4.34375 4.40625 11.0625q0 1.4375 -0.65625 4.34375zm-23.625 -5.875l16.4375 0q-0.8125 -7.34375 -8.125 -7.34375q-6.6875 0 -8.3125 7.34375zm28.46875 18.0625l2.78125 -6.21875q3.5 2.78125 7.90625 2.78125q4.5625 0 4.5625 -3.25q0 -1.90625 -1.375 -3.125q-1.375 -1.21875 -5.34375 -2.875q-8.65625 -3.59375 -8.65625 -10.0625q0 -4.34375 3.3125 -6.765625q3.3125 -2.421875 8.46875 -2.421875q5.21875 0 9.8125 2.34375l-2.25 6.0625q-2.5625 -2.1875 -7.125 -2.1875q-4.09375 0 -4.09375 3.25q0 1.28125 1.34375 2.3125q1.34375 1.03125 5.75 2.765625q4.40625 1.734375 6.34375 4.203125q1.9375 2.46875 1.9375 5.96875q0 4.65625 -3.453125 7.328125q-3.453125 2.671875 -9.390625 2.671875q-3.34375 0 -5.359375 -0.546875q-2.015625 -0.546875 -5.171875 -2.234375zm35.75 -44.28125q1.875 0 3.203125 1.328125q1.328125 1.328125 1.328125 3.203125q0 1.875 -1.328125 3.203125q-1.328125 1.328125 -3.203125 1.328125q-1.875 0 -3.203125 -1.328125q-1.328125 -1.328125 -1.328125 -3.203125q0 -1.875 1.328125 -3.203125q1.328125 -1.328125 3.203125 -1.328125zm-4.03125 46.4375l0 -27.0625l-4.28125 0l0 -6.40625l12.1875 0l0 33.46875l-7.90625 0zm14.5 8.59375l4.9375 -6.09375q4.09375 3.75 9.125 3.75q3.375 0 5.5625 -1.0q2.1875 -1.0 2.1875 -2.75q0 -2.96875 -4.84375 -2.96875q-1.3125 0 -3.90625 0.3125q-2.59375 0.3125 -3.90625 0.3125q-8.0625 0 -8.0625 -5.78125q0 -1.65625 1.34375 -3.25q1.34375 -1.59375 3.125 -2.34375q-5.71875 -3.71875 -5.71875 -10.53125q0 -5.375 3.9375 -8.890625q3.9375 -3.515625 9.6875 -3.515625q4.5 0 7.53125 1.6875l3.0625 -3.5625l5.40625 4.90625l-3.71875 2.71875q1.9375 2.9375 1.9375 6.9375q0 5.71875 -3.484375 9.140625q-3.484375 3.421875 -8.796875 3.421875q-0.84375 0 -2.25 -0.15625l-1.28125 -0.1875q-0.21875 0 -1.671875 0.671875q-1.453125 0.671875 -1.453125 1.390625q0 1.25 2.15625 1.25q0.96875 0 3.25 -0.46875q2.28125 -0.46875 3.90625 -0.46875q11.40625 0 11.40625 9.15625q0 5.0625 -4.5625 7.9531403q-4.5625 2.890625 -11.0 2.890625q-7.6875 0 -13.90625 -4.5312653zm7.8125 -30.3125q0 2.96875 1.640625 4.765625q1.640625 1.796875 4.421875 1.796875q2.78125 0 4.28125 -1.75q1.5 -1.75 1.5 -4.8125q0 -2.53125 -1.609375 -4.28125q-1.609375 -1.75 -4.171875 -1.75q-2.6875 0 -4.375 1.6875q-1.6875 1.6875 -1.6875 4.34375zm48.34375 21.71875l0 -19.34375q0 -4.28125 -1.640625 -6.25q-1.640625 -1.96875 -5.359375 -1.96875q-1.71875 0 -3.671875 0.96875q-1.953125 0.96875 -3.046875 2.40625l0 24.1875l-7.8125 0l0 -33.46875l5.625 0l1.4375 3.125q3.1875 -3.75 9.40625 -3.75q5.96875 0 9.421875 3.578125q3.453125 3.578125 3.453125 9.984375l0 20.53125l-7.8125 0zm46.125 -14.34375l-23.90625 0q0.21875 4.0 2.75 6.21875q2.53125 2.21875 6.8125 2.21875q5.34375 0 8.125 -2.78125l3.03125 5.96875q-4.125 3.34375 -12.3125 3.34375q-7.65625 0 -12.109375 -4.484375q-4.453125 -4.484375 -4.453125 -12.515625q0 -7.90625 4.890625 -12.8125q4.890625 -4.90625 11.734375 -4.90625q7.28125 0 11.6875 4.34375q4.40625 4.34375 4.40625 11.0625q0 1.4375 -0.65625 4.34375zm-23.625 -5.875l16.4375 0q-0.8125 -7.34375 -8.125 -7.34375q-6.6875 0 -8.3125 7.34375zm52.0625 20.21875l0 -2.03125q-0.96875 1.0625 -3.28125 1.859375q-2.3125 0.796875 -4.78125 0.796875q-7.0 0 -11.015625 -4.4375q-4.015625 -4.4375 -4.015625 -12.375q0 -7.9375 4.609375 -12.921875q4.609375 -4.984375 11.546875 -4.984375q3.8125 0 6.9375 1.5625l0 -13.40625l7.8125 -1.875l0 47.8125l-7.8125 0zm0 -25.46875q-2.5 -2.0 -5.21875 -2.0q-4.6875 0 -7.21875 2.859375q-2.53125 2.859375 -2.53125 8.203125q0 10.4375 10.0625 10.4375q1.125 0 2.765625 -0.671875q1.640625 -0.671875 2.140625 -1.359375l0 -17.46875z" fill-rule="nonzero"></path><path fill="#000000" fill-opacity="0.0" d="m186.66595 168.47935l156.34644 0l0 37.543304l-156.34644 0z" fill-rule="nonzero"></path><path fill="#f3f3f3" d="m206.40033 196.83537l0 -1.046875q-1.3125 1.3125 -3.796875 1.3125q-2.65625 0 -4.3125 -1.890625q-1.640625 -1.90625 -1.640625 -5.0625q0 -3.1875 1.890625 -5.4375q1.90625 -2.25 4.53125 -2.25q2.1875 0 3.328125 1.03125l0 -6.546875l2.5 0l0 19.890625l-2.5 0zm0 -10.828125q-0.953125 -1.4375 -2.59375 -1.4375q-2.015625 0 -3.265625 1.515625q-1.25 1.5 -1.25 3.8125q0 5.109375 4.640625 5.109375q0.59375 0 1.421875 -0.375q0.828125 -0.375 1.046875 -0.796875l0 -7.828125zm8.475967 -8.609375q0.65625 0 1.109375 0.453125q0.453125 0.453125 0.453125 1.078125q0 0.65625 -0.453125 1.109375q-0.453125 0.453125 -1.109375 0.453125q-0.625 0 -1.078125 -0.453125q-0.453125 -0.453125 -0.453125 -1.109375q0 -0.640625 0.4375 -1.078125q0.453125 -0.453125 1.09375 -0.453125zm-1.359375 19.453125l0 -12.015625l-1.9375 0l0 -2.109375l4.4375 0l0 14.125l-2.5 0zm5.8668213 3.859375l1.359375 -2.0q2.1875 1.46875 4.03125 1.46875q1.703125 0 2.6875 -0.59375q0.984375 -0.578125 0.984375 -1.453125q0 -1.71875 -2.484375 -1.71875q-0.421875 0 -1.53125 0.21875q-1.109375 0.203125 -1.71875 0.203125q-3.015625 0 -3.015625 -2.265625q0 -0.703125 0.703125 -1.265625q0.71875 -0.5625 1.75 -0.8125q-2.96875 -1.40625 -2.96875 -4.859375q0 -2.21875 1.53125 -3.6875q1.546875 -1.484375 3.8125 -1.484375q2.078125 0 3.25 0.859375l1.265625 -1.5l1.625 1.546875l-1.5 1.125q0.96875 1.265625 0.96875 3.28125q0 2.125 -1.34375 3.578125q-1.328125 1.453125 -3.484375 1.65625l-2.078125 0.21875q-0.359375 0.03125 -0.984375 0.28125q-0.625 0.25 -0.625 0.640625q0 0.546875 1.296875 0.546875q0.5625 0 1.765625 -0.203125q1.203125 -0.21875 1.78125 -0.21875q2.078125 0 3.25 1.0q1.171875 1.0 1.171875 2.765625q0 1.953125 -1.75 3.140625q-1.75 1.203125 -4.421875 1.203125q-1.375 0 -2.890625 -0.484375q-1.515625 -0.484375 -2.4375 -1.1875zm5.3125 -16.21875q-1.296875 0 -2.125 0.921875q-0.828125 0.921875 -0.828125 2.234375q0 1.484375 0.796875 2.453125q0.796875 0.96875 2.15625 0.96875q1.328125 0 2.078125 -0.9375q0.75 -0.953125 0.75 -2.484375q0 -1.3125 -0.8125 -2.234375q-0.796875 -0.921875 -2.015625 -0.921875zm11.161438 -7.09375q0.65625 0 1.109375 0.453125q0.453125 0.453125 0.453125 1.078125q0 0.65625 -0.453125 1.109375q-0.453125 0.453125 -1.109375 0.453125q-0.625 0 -1.078125 -0.453125q-0.453125 -0.453125 -0.453125 -1.109375q0 -0.640625 0.4375 -1.078125q0.453125 -0.453125 1.09375 -0.453125zm-1.359375 19.453125l0 -12.015625l-1.9375 0l0 -2.109375l4.4375 0l0 14.125l-2.5 0zm7.2730713 -12.140625l-1.625 0l0 -1.984375l1.625 0l0 -2.953125l2.515625 -0.953125l0 3.90625l3.875 0l0 1.984375l-3.875 0l0 7.015625q0 1.78125 0.59375 2.53125q0.59375 0.75 1.9375 0.75q0.953125 0 1.984375 -0.484375l0.375 2.203125q-1.5625 0.390625 -3.421875 0.390625q-1.671875 0 -2.828125 -1.25q-1.15625 -1.25 -1.15625 -3.140625l0 -8.015625zm17.646896 10.515625q-1.5 1.890625 -4.5937347 1.890625q-1.65625 0 -2.875 -1.203125q-1.21875 -1.21875 -1.21875 -3.0q0 -2.15625 1.875 -3.640625q1.875 -1.484375 4.7812347 -1.484375q0.796875 0 1.796875 0.34375q0 -3.421875 -3.0625 -3.421875q-2.3437347 0 -3.6093597 1.265625l-1.046875 -2.09375q0.703125 -0.578125 1.953125 -1.0q1.265625 -0.421875 2.421875 -0.421875q3.0624847 0 4.4531097 1.40625q1.40625 1.390625 1.40625 4.4375l0 5.0625q0 1.859375 1.09375 2.484375l0 1.25q-1.515625 0 -2.28125 -0.4375q-0.765625 -0.4375 -1.09375 -1.4375zm-0.234375 -5.3125q-1.1875 -0.265625 -1.65625 -0.265625q-1.9062347 0 -3.1093597 0.984375q-1.1875 0.96875 -1.1875 2.296875q0 2.203125 2.59375 2.203125q1.9062347 0 3.3593597 -1.796875l0 -3.421875zm6.473694 2.9375l0 -15.90625l2.5 0l0 15.484375q0 1.140625 0.640625 1.796875q0.65625 0.640625 1.71875 0.640625l0 2.25q-4.859375 0 -4.859375 -4.265625z" fill-rule="nonzero"></path><path fill="#000000" fill-opacity="0.0" d="m377.01297 249.86308l420.09445 0l0 71.49608l-420.09445 0z" fill-rule="nonzero"></path><path fill="#c6dfff" d="m386.87234 283.61932l0.875 -2.375q2.109375 1.375 3.375 1.375q2.328125 0 2.328125 -1.953125q0 -1.390625 -2.25 -2.40625q-1.71875 -0.78125 -2.328125 -1.1875q-0.59375 -0.421875 -1.03125 -0.9375q-0.4375 -0.515625 -0.65625 -1.09375q-0.21875 -0.59375 -0.21875 -1.265625q0 -1.75 1.265625 -2.71875q1.265625 -0.984375 3.3125 -0.984375q1.53125 0 3.875 0.984375l-0.703125 2.3125q-1.484375 -1.1875 -3.0 -1.1875q-0.890625 0 -1.5 0.421875q-0.609375 0.421875 -0.609375 1.078125q0 1.359375 1.53125 2.046875l1.796875 0.828125q1.640625 0.75 2.390625 1.71875q0.765625 0.953125 0.765625 2.40625q0 1.890625 -1.34375 2.96875q-1.328125 1.078125 -3.6875 1.078125q-2.21875 0 -4.1875 -1.109375zm12.602539 -11.296875l-1.625 0l0 -1.984375l1.625 0l0 -2.953125l2.515625 -0.953125l0 3.90625l3.875 0l0 1.984375l-3.875 0l0 7.015625q0 1.78125 0.59375 2.53125q0.59375 0.75 1.9375 0.75q0.953125 0 1.984375 -0.484375l0.375 2.203125q-1.5625 0.390625 -3.421875 0.390625q-1.671875 0 -2.828125 -1.25q-1.15625 -1.25 -1.15625 -3.140625l0 -8.015625zm17.646912 10.515625q-1.5 1.890625 -4.59375 1.890625q-1.65625 0 -2.875 -1.203125q-1.21875 -1.21875 -1.21875 -3.0q0 -2.15625 1.875 -3.640625q1.875 -1.484375 4.78125 -1.484375q0.796875 0 1.796875 0.34375q0 -3.421875 -3.0625 -3.421875q-2.34375 0 -3.609375 1.265625l-1.046875 -2.09375q0.703125 -0.578125 1.953125 -1.0q1.265625 -0.421875 2.421875 -0.421875q3.0625 0 4.453125 1.40625q1.40625 1.390625 1.40625 4.4375l0 5.0625q0 1.859375 1.09375 2.484375l0 1.25q-1.515625 0 -2.28125 -0.4375q-0.765625 -0.4375 -1.09375 -1.4375zm-0.234375 -5.3125q-1.1875 -0.265625 -1.65625 -0.265625q-1.90625 0 -3.109375 0.984375q-1.1875 0.96875 -1.1875 2.296875q0 2.203125 2.59375 2.203125q1.90625 0 3.359375 -1.796875l0 -3.421875zm13.942444 -4.765625q-0.8125 -0.578125 -1.640625 -0.578125q-1.34375 0 -2.34375 1.234375q-0.984375 1.21875 -0.984375 2.953125l0 8.09375l-2.5 0l0 -14.125l2.5 0l0 2.265625q1.375 -2.53125 4.078125 -2.53125q0.671875 0 1.9375 0.25l-1.046875 2.4375zm3.5792847 -0.4375l-1.625 0l0 -1.984375l1.625 0l0 -2.953125l2.515625 -0.953125l0 3.90625l3.875 0l0 1.984375l-3.875 0l0 7.015625q0 1.78125 0.59375 2.53125q0.59375 0.75 1.9375 0.75q0.953125 0 1.984375 -0.484375l0.375 2.203125q-1.5625 0.390625 -3.421875 0.390625q-1.671875 0 -2.828125 -1.25q-1.15625 -1.25 -1.15625 -3.140625l0 -8.015625zm12.256287 -7.3125q0.65625 0 1.109375 0.453125q0.453125 0.453125 0.453125 1.078125q0 0.65625 -0.453125 1.109375q-0.453125 0.453125 -1.109375 0.453125q-0.625 0 -1.078125 -0.453125q-0.453125 -0.453125 -0.453125 -1.109375q0 -0.640625 0.4375 -1.078125q0.453125 -0.453125 1.09375 -0.453125zm-1.359375 19.453125l0 -12.015625l-1.9375 0l0 -2.109375l4.4375 0l0 14.125l-2.5 0zm15.069946 0l0 -8.21875q0 -2.25 -0.6875 -3.15625q-0.671875 -0.90625 -2.265625 -0.90625q-0.859375 0 -1.796875 0.515625q-0.9375 0.515625 -1.4375 1.265625l0 10.5l-2.5 0l0 -14.125l1.71875 0l0.78125 1.828125q1.25 -2.09375 4.046875 -2.09375q4.640625 0 4.640625 5.65625l0 8.734375l-2.5 0zm5.361511 3.859375l1.359375 -2.0q2.1875 1.46875 4.03125 1.46875q1.703125 0 2.6875 -0.59375q0.984375 -0.578125 0.984375 -1.453125q0 -1.71875 -2.484375 -1.71875q-0.421875 0 -1.53125 0.21875q-1.109375 0.203125 -1.71875 0.203125q-3.015625 0 -3.015625 -2.265625q0 -0.703125 0.703125 -1.265625q0.71875 -0.5625 1.75 -0.8125q-2.96875 -1.40625 -2.96875 -4.859375q0 -2.21875 1.53125 -3.6875q1.546875 -1.484375 3.8125 -1.484375q2.078125 0 3.25 0.859375l1.265625 -1.5l1.625 1.546875l-1.5 1.125q0.96875 1.265625 0.96875 3.28125q0 2.125 -1.34375 3.578125q-1.328125 1.453125 -3.484375 1.65625l-2.078125 0.21875q-0.359375 0.03125 -0.984375 0.28125q-0.625 0.25 -0.625 0.640625q0 0.546875 1.296875 0.546875q0.5625 0 1.765625 -0.203125q1.203125 -0.21875 1.78125 -0.21875q2.078125 0 3.25 1.0q1.171875 1.0 1.171875 2.765625q0 1.953125 -1.75 3.140625q-1.75 1.203125 -4.421875 1.203125q-1.375 0 -2.890625 -0.484375q-1.515625 -0.484375 -2.4375 -1.1875zm5.3125 -16.21875q-1.296875 0 -2.125 0.921875q-0.828125 0.921875 -0.828125 2.234375q0 1.484375 0.796875 2.453125q0.796875 0.96875 2.15625 0.96875q1.328125 0 2.078125 -0.9375q0.75 -0.953125 0.75 -2.484375q0 -1.3125 -0.8125 -2.234375q-0.796875 -0.921875 -2.015625 -0.921875zm29.660889 12.625l-0.65625 0l-4.140625 -9.609375l-4.125 9.609375l-0.65625 0l-5.046875 -14.421875l2.671875 0l3.015625 9.265625l3.765625 -9.265625l0.65625 0l3.875 9.265625l3.234375 -9.265625l2.46875 0l-5.0625 14.421875zm9.367249 -19.71875q0.65625 0 1.109375 0.453125q0.453125 0.453125 0.453125 1.078125q0 0.65625 -0.453125 1.109375q-0.453125 0.453125 -1.109375 0.453125q-0.625 0 -1.078125 -0.453125q-0.453125 -0.453125 -0.453125 -1.109375q0 -0.640625 0.4375 -1.078125q0.453125 -0.453125 1.09375 -0.453125zm-1.359375 19.453125l0 -12.015625l-1.9375 0l0 -2.109375l4.4375 0l0 14.125l-2.5 0zm7.273102 -12.140625l-1.625 0l0 -1.984375l1.625 0l0 -2.953125l2.515625 -0.953125l0 3.90625l3.875 0l0 1.984375l-3.875 0l0 7.015625q0 1.78125 0.59375 2.53125q0.59375 0.75 1.9375 0.75q0.953125 0 1.984375 -0.484375l0.375 2.203125q-1.5625 0.390625 -3.421875 0.390625q-1.671875 0 -2.828125 -1.25q-1.15625 -1.25 -1.15625 -3.140625l0 -8.015625zm18.381287 12.140625l0 -8.875q0 -1.578125 -0.78125 -2.484375q-0.78125 -0.921875 -2.1875 -0.921875q-0.90625 0 -1.828125 0.546875q-0.921875 0.53125 -1.40625 1.234375l0 10.5l-2.5 0l0 -19.90625l2.5 0l0 7.34375q0.5 -0.78125 1.609375 -1.296875q1.125 -0.53125 2.3125 -0.53125q2.234375 0 3.5 1.484375q1.28125 1.46875 1.28125 4.03125l0 8.875l-2.5 0zm21.860962 -1.625q-1.5 1.890625 -4.59375 1.890625q-1.65625 0 -2.875 -1.203125q-1.21875 -1.21875 -1.21875 -3.0q0 -2.15625 1.875 -3.640625q1.875 -1.484375 4.78125 -1.484375q0.796875 0 1.796875 0.34375q0 -3.421875 -3.0625 -3.421875q-2.34375 0 -3.609375 1.265625l-1.046875 -2.09375q0.703125 -0.578125 1.953125 -1.0q1.265625 -0.421875 2.421875 -0.421875q3.0625 0 4.453125 1.40625q1.40625 1.390625 1.40625 4.4375l0 5.0625q0 1.859375 1.09375 2.484375l0 1.25q-1.515625 0 -2.28125 -0.4375q-0.765625 -0.4375 -1.09375 -1.4375zm-0.234375 -5.3125q-1.1875 -0.265625 -1.65625 -0.265625q-1.90625 0 -3.109375 0.984375q-1.1875 0.96875 -1.1875 2.296875q0 2.203125 2.59375 2.203125q1.90625 0 3.359375 -1.796875l0 -3.421875zm16.926819 -6.03125l-1.25 1.765625q-0.375 -0.390625 -1.34375 -0.734375q-0.96875 -0.34375 -1.90625 -0.34375q-2.046875 0 -3.25 1.4375q-1.1875 1.4375 -1.1875 3.921875q0 2.484375 1.21875 3.78125q1.234375 1.296875 3.40625 1.296875q1.6875 0 3.390625 -1.3125l1.0 2.109375q-2.015625 1.3125 -5.0 1.3125q-2.890625 0 -4.78125 -1.9375q-1.875 -1.9375 -1.875 -5.25q0 -3.375 1.953125 -5.421875q1.953125 -2.046875 5.359375 -2.046875q1.09375 0 2.375 0.46875q1.28125 0.46875 1.890625 0.953125zm10.510437 11.34375q-1.5 1.890625 -4.59375 1.890625q-1.65625 0 -2.875 -1.203125q-1.21875 -1.21875 -1.21875 -3.0q0 -2.15625 1.875 -3.640625q1.875 -1.484375 4.78125 -1.484375q0.796875 0 1.796875 0.34375q0 -3.421875 -3.0625 -3.421875q-2.34375 0 -3.609375 1.265625l-1.046875 -2.09375q0.703125 -0.578125 1.953125 -1.0q1.265625 -0.421875 2.421875 -0.421875q3.0625 0 4.453125 1.40625q1.40625 1.390625 1.40625 4.4375l0 5.0625q0 1.859375 1.09375 2.484375l0 1.25q-1.515625 0 -2.28125 -0.4375q-0.765625 -0.4375 -1.09375 -1.4375zm-0.234375 -5.3125q-1.1875 -0.265625 -1.65625 -0.265625q-1.90625 0 -3.109375 0.984375q-1.1875 0.96875 -1.1875 2.296875q0 2.203125 2.59375 2.203125q1.90625 0 3.359375 -1.796875l0 -3.421875zm15.223694 6.921875l0 -1.046875q-1.3125 1.3125 -3.796875 1.3125q-2.65625 0 -4.3125 -1.890625q-1.640625 -1.90625 -1.640625 -5.0625q0 -3.1875 1.890625 -5.4375q1.90625 -2.25 4.53125 -2.25q2.1875 0 3.328125 1.03125l0 -6.546875l2.5 0l0 19.890625l-2.5 0zm0 -10.828125q-0.953125 -1.4375 -2.59375 -1.4375q-2.015625 0 -3.265625 1.515625q-1.25 1.5 -1.25 3.8125q0 5.109375 4.640625 5.109375q0.59375 0 1.421875 -0.375q0.828125 -0.375 1.046875 -0.796875l0 -7.828125zm17.788452 4.03125l-10.171875 0q0 2.46875 1.359375 3.8125q1.1875 1.15625 3.078125 1.15625q2.140625 0 3.578125 -1.25l1.0625 1.796875q-0.578125 0.578125 -1.78125 1.0q-1.5 0.5625 -3.34375 0.5625q-2.671875 0 -4.53125 -1.8125q-2.0625 -1.984375 -2.0625 -5.34375q0 -3.5 2.125 -5.609375q1.890625 -1.890625 4.484375 -1.890625q3.03125 0 4.734375 1.703125q1.671875 1.640625 1.671875 4.34375q0 0.828125 -0.203125 1.53125zm-6.078125 -5.46875q-1.671875 0 -2.8125 1.09375q-1.078125 1.015625 -1.21875 2.546875l7.8125 0q0 -1.515625 -0.953125 -2.53125q-1.03125 -1.109375 -2.828125 -1.109375zm25.069824 12.28125l0 -8.9375q0 -3.34375 -2.890564 -3.34375q-0.90625 0 -1.703125 0.5625q-0.78125 0.5625 -1.078125 1.28125l0 10.4375l-2.5 0l0 -10.03125q0 -1.046875 -0.78125 -1.640625q-0.78125 -0.609375 -2.078125 -0.609375q-0.75 0 -1.609375 0.59375q-0.84375 0.578125 -1.203125 1.265625l0 10.421875l-2.5 0l0 -14.125l1.640625 0l0.828125 1.640625q1.453125 -1.90625 3.625 -1.90625q3.03125 0 4.234375 1.890625q0.421875 -0.796875 1.5625 -1.34375q1.15625 -0.546875 2.374939 -0.546875q2.1875 0 3.375 1.3125q1.203125 1.296875 1.203125 3.640625l0 9.4375l-2.5 0zm8.361145 -19.453125q0.65625 0 1.109375 0.453125q0.453125 0.453125 0.453125 1.078125q0 0.65625 -0.453125 1.109375q-0.453125 0.453125 -1.109375 0.453125q-0.625 0 -1.078125 -0.453125q-0.453125 -0.453125 -0.453125 -1.109375q0 -0.640625 0.4375 -1.078125q0.453125 -0.453125 1.09375 -0.453125zm-1.359375 19.453125l0 -12.015625l-1.9375 0l0 -2.109375l4.4375 0l0 14.125l-2.5 0zm17.038696 -12.96875l-1.25 1.765625q-0.375 -0.390625 -1.34375 -0.734375q-0.96875 -0.34375 -1.90625 -0.34375q-2.046875 0 -3.25 1.4375q-1.1875 1.4375 -1.1875 3.921875q0 2.484375 1.21875 3.78125q1.234375 1.296875 3.40625 1.296875q1.6875 0 3.390625 -1.3125l1.0 2.109375q-2.015625 1.3125 -5.0 1.3125q-2.890625 0 -4.78125 -1.9375q-1.875 -1.9375 -1.875 -5.25q0 -3.375 1.953125 -5.421875q1.953125 -2.046875 5.359375 -2.046875q1.09375 0 2.375 0.46875q1.28125 0.46875 1.890625 0.953125zm18.541199 11.34375q-1.5 1.890625 -4.59375 1.890625q-1.65625 0 -2.875 -1.203125q-1.21875 -1.21875 -1.21875 -3.0q0 -2.15625 1.875 -3.640625q1.875 -1.484375 4.78125 -1.484375q0.796875 0 1.796875 0.34375q0 -3.421875 -3.0625 -3.421875q-2.34375 0 -3.609375 1.265625l-1.046875 -2.09375q0.703125 -0.578125 1.953125 -1.0q1.265625 -0.421875 2.421875 -0.421875q3.0625 0 4.453125 1.40625q1.40625 1.390625 1.40625 4.4375l0 5.0625q0 1.859375 1.09375 2.484375l0 1.25q-1.515625 0 -2.28125 -0.4375q-0.765625 -0.4375 -1.09375 -1.4375zm-0.234375 -5.3125q-1.1875 -0.265625 -1.65625 -0.265625q-1.90625 0 -3.109375 0.984375q-1.1875 0.96875 -1.1875 2.296875q0 2.203125 2.59375 2.203125q1.90625 0 3.359375 -1.796875l0 -3.421875zm13.942444 -4.765625q-0.8125 -0.578125 -1.640625 -0.578125q-1.34375 0 -2.34375 1.234375q-0.984375 1.21875 -0.984375 2.953125l0 8.09375l-2.5 0l0 -14.125l2.5 0l0 2.265625q1.375 -2.53125 4.078125 -2.53125q0.671875 0 1.9375 0.25l-1.046875 2.4375zm3.5792847 -0.4375l-1.625 0l0 -1.984375l1.625 0l0 -2.953125l2.515625 -0.953125l0 3.90625l3.875 0l0 1.984375l-3.875 0l0 7.015625q0 1.78125 0.59375 2.53125q0.59375 0.75 1.9375 0.75q0.953125 0 1.984375 -0.484375l0.375 2.203125q-1.5625 0.390625 -3.421875 0.390625q-1.671875 0 -2.828125 -1.25q-1.15625 -1.25 -1.15625 -3.140625l0 -8.015625zm12.256287 -7.3125q0.65625 0 1.109375 0.453125q0.453125 0.453125 0.453125 1.078125q0 0.65625 -0.453125 1.109375q-0.453125 0.453125 -1.109375 0.453125q-0.625 0 -1.078125 -0.453125q-0.453125 -0.453125 -0.453125 -1.109375q0 -0.640625 0.4375 -1.078125q0.453125 -0.453125 1.09375 -0.453125zm-1.359375 19.453125l0 -12.015625l-1.9375 0l0 -2.109375l4.4375 0l0 14.125l-2.5 0zm17.038696 -12.96875l-1.25 1.765625q-0.375 -0.390625 -1.34375 -0.734375q-0.96875 -0.34375 -1.90625 -0.34375q-2.046875 0 -3.25 1.4375q-1.1875 1.4375 -1.1875 3.921875q0 2.484375 1.21875 3.78125q1.234375 1.296875 3.40625 1.296875q1.6875 0 3.390625 -1.3125l1.0 2.109375q-2.015625 1.3125 -5.0 1.3125q-2.890625 0 -4.78125 -1.9375q-1.875 -1.9375 -1.875 -5.25q0 -3.375 1.953125 -5.421875q1.953125 -2.046875 5.359375 -2.046875q1.09375 0 2.375 0.46875q1.28125 0.46875 1.890625 0.953125zm2.744873 8.96875l0 -15.90625l2.5 0l0 15.484375q0 1.140625 0.640625 1.796875q0.65625 0.640625 1.71875 0.640625l0 2.25q-4.859375 0 -4.859375 -4.265625zm19.549011 -2.8125l-10.171875 0q0 2.46875 1.359375 3.8125q1.1875 1.15625 3.078125 1.15625q2.140625 0 3.578125 -1.25l1.0625 1.796875q-0.578125 0.578125 -1.78125 1.0q-1.5 0.5625 -3.34375 0.5625q-2.671875 0 -4.53125 -1.8125q-2.0625 -1.984375 -2.0625 -5.34375q0 -3.5 2.125 -5.609375q1.890625 -1.890625 4.484375 -1.890625q3.03125 0 4.734375 1.703125q1.671875 1.640625 1.671875 4.34375q0 0.828125 -0.203125 1.53125zm-6.078125 -5.46875q-1.671875 0 -2.8125 1.09375q-1.078125 1.015625 -1.21875 2.546875l7.8125 0q0 -1.515625 -0.953125 -2.53125q-1.03125 -1.109375 -2.828125 -1.109375zm7.804199 11.4375l0.875 -2.375q2.109375 1.375 3.375 1.375q2.328125 0 2.328125 -1.953125q0 -1.390625 -2.25 -2.40625q-1.71875 -0.78125 -2.328125 -1.1875q-0.59375 -0.421875 -1.03125 -0.9375q-0.4375 -0.515625 -0.65625 -1.09375q-0.21875 -0.59375 -0.21875 -1.265625q0 -1.75 1.265625 -2.71875q1.265625 -0.984375 3.3125 -0.984375q1.53125 0 3.875 0.984375l-0.703125 2.3125q-1.484375 -1.1875 -3.0 -1.1875q-0.890625 0 -1.5 0.421875q-0.609375 0.421875 -0.609375 1.078125q0 1.359375 1.53125 2.046875l1.796875 0.828125q1.640625 0.75 2.390625 1.71875q0.765625 0.953125 0.765625 2.40625q0 1.890625 -1.34375 2.96875q-1.328125 1.078125 -3.6875 1.078125q-2.21875 0 -4.1875 -1.109375z" fill-rule="nonzero"></path></g></svg>

